<svg width="428" height="403" viewBox="0 0 428 403" fill="none" xmlns="http://www.w3.org/2000/svg">
<path d="M137.63 81.1124H244.123V147.281C244.123 148.629 243.588 149.921 242.637 150.873C241.685 151.826 240.395 152.361 239.05 152.361H142.703C141.357 152.361 140.067 151.826 139.116 150.873C138.164 149.921 137.63 148.629 137.63 147.281V81.1124Z" fill="white"/>
<path d="M239.05 152.963H142.703C141.197 152.959 139.753 152.358 138.69 151.29C137.626 150.223 137.029 148.776 137.029 147.268V81.1124C137.029 80.9517 137.092 80.7972 137.204 80.6823C137.316 80.5674 137.469 80.501 137.63 80.4975H244.123C244.285 80.4975 244.442 80.5623 244.557 80.6776C244.672 80.793 244.737 80.9494 244.737 81.1124V147.268C244.737 148.778 244.137 150.227 243.071 151.295C242.004 152.363 240.558 152.963 239.05 152.963ZM138.244 81.7274V147.228C138.244 148.413 138.713 149.55 139.549 150.39C140.385 151.229 141.519 151.703 142.703 151.706H239.05C240.236 151.706 241.373 151.234 242.212 150.395C243.051 149.555 243.522 148.416 243.522 147.228V81.7274H138.244Z" fill="#231F20"/>
<path d="M142.703 71.6483H239.05C240.395 71.6483 241.685 72.1834 242.637 73.1361C243.588 74.0887 244.123 75.3807 244.123 76.7279V81.1124H137.63V76.7279C137.63 75.3807 138.164 74.0887 139.116 73.1361C140.067 72.1834 141.357 71.6483 142.703 71.6483Z" fill="white"/>
<path d="M244.123 81.7273H137.63C137.469 81.7238 137.316 81.6575 137.204 81.5426C137.092 81.4276 137.029 81.2732 137.029 81.1124V76.7279C137.032 75.2222 137.631 73.7793 138.695 72.7146C139.758 71.6499 141.199 71.0503 142.703 71.0467H239.05C240.551 71.0538 241.989 71.655 243.049 72.7193C244.109 73.7836 244.706 75.2246 244.71 76.7279V81.1124C244.71 81.271 244.649 81.4235 244.54 81.5381C244.43 81.6526 244.281 81.7205 244.123 81.7273ZM138.244 80.4975H243.522V76.7279C243.518 75.5426 243.045 74.407 242.207 73.57C241.369 72.7331 240.233 72.2632 239.05 72.2632H142.703C141.521 72.2667 140.389 72.7382 139.554 73.5748C138.718 74.4113 138.247 75.5449 138.244 76.7279V80.4975Z" fill="#231F20"/>
<path d="M163.849 107.593C167.639 107.593 170.711 104.517 170.711 100.723C170.711 96.9279 167.639 93.8517 163.849 93.8517C160.059 93.8517 156.987 96.9279 156.987 100.723C156.987 104.517 160.059 107.593 163.849 107.593Z" fill="#3CB4FF"/>
<path d="M151.38 121.496C151.486 118.253 152.847 115.179 155.175 112.923C157.503 110.667 160.616 109.406 163.856 109.406C167.096 109.406 170.208 110.667 172.536 112.923C174.865 115.179 176.225 118.253 176.331 121.496H151.38Z" fill="#3CB4FF"/>
<path d="M217.903 107.593C221.693 107.593 224.765 104.517 224.765 100.723C224.765 96.9279 221.693 93.8517 217.903 93.8517C214.113 93.8517 211.041 96.9279 211.041 100.723C211.041 104.517 214.113 107.593 217.903 107.593Z" fill="#3CB4FF"/>
<path d="M205.434 121.496C205.54 118.253 206.901 115.179 209.229 112.923C211.557 110.667 214.67 109.406 217.91 109.406C221.15 109.406 224.263 110.667 226.591 112.923C228.919 115.179 230.28 118.253 230.385 121.496H205.434Z" fill="#3CB4FF"/>
<path d="M202.591 101.337H186.571C186.408 101.337 186.252 101.273 186.136 101.157C186.021 101.042 185.957 100.886 185.957 100.723C185.957 100.559 186.021 100.403 186.136 100.288C186.252 100.172 186.408 100.108 186.571 100.108H201.176L197.985 96.7524C197.928 96.6965 197.884 96.6298 197.853 96.5564C197.822 96.483 197.807 96.4042 197.807 96.3246C197.807 96.2451 197.822 96.1663 197.853 96.0929C197.884 96.0194 197.928 95.9528 197.985 95.8969C198.102 95.785 198.257 95.7225 198.419 95.7225C198.58 95.7225 198.736 95.785 198.853 95.8969L203.018 100.295C203.102 100.379 203.158 100.487 203.179 100.604C203.201 100.721 203.186 100.841 203.138 100.95C203.094 101.061 203.019 101.156 202.922 101.225C202.825 101.294 202.71 101.333 202.591 101.337Z" fill="#231F20"/>
<path d="M198.586 105.254C198.42 105.252 198.262 105.185 198.145 105.067C198.03 104.952 197.966 104.795 197.966 104.633C197.966 104.47 198.03 104.313 198.145 104.198L202.15 100.295C202.268 100.188 202.423 100.132 202.582 100.137C202.741 100.143 202.891 100.21 203.002 100.324C203.112 100.438 203.174 100.591 203.175 100.75C203.175 100.909 203.114 101.062 203.005 101.177L199 105.08C198.888 105.188 198.741 105.251 198.586 105.254Z" fill="#231F20"/>
<path d="M194.995 106.484H178.975C178.856 106.486 178.739 106.453 178.64 106.388C178.54 106.324 178.461 106.232 178.414 106.123C178.366 106.012 178.352 105.89 178.373 105.771C178.395 105.652 178.451 105.542 178.534 105.455L182.699 101.07C182.754 101.009 182.82 100.959 182.894 100.924C182.968 100.889 183.049 100.869 183.131 100.865C183.213 100.861 183.294 100.874 183.371 100.903C183.448 100.931 183.519 100.975 183.578 101.031C183.638 101.088 183.686 101.155 183.719 101.23C183.752 101.305 183.77 101.386 183.772 101.469C183.773 101.551 183.758 101.632 183.728 101.708C183.697 101.785 183.651 101.854 183.594 101.912L180.39 105.254H194.995C195.156 105.258 195.311 105.323 195.425 105.438C195.54 105.553 195.605 105.707 195.609 105.869C195.609 106.032 195.544 106.189 195.429 106.304C195.314 106.419 195.157 106.484 194.995 106.484Z" fill="#231F20"/>
<path d="M182.966 110.387C182.889 110.388 182.812 110.374 182.741 110.344C182.67 110.314 182.606 110.269 182.552 110.213L178.547 106.324C178.436 106.207 178.373 106.051 178.373 105.889C178.373 105.727 178.436 105.572 178.547 105.455C178.662 105.34 178.819 105.275 178.981 105.275C179.144 105.275 179.3 105.34 179.415 105.455L183.42 109.358C183.477 109.414 183.521 109.481 183.552 109.554C183.583 109.627 183.598 109.706 183.598 109.786C183.598 109.865 183.583 109.944 183.552 110.017C183.521 110.091 183.477 110.158 183.42 110.213C183.36 110.271 183.289 110.316 183.211 110.346C183.133 110.376 183.05 110.39 182.966 110.387Z" fill="#231F20"/>
<path d="M222.629 129.583H159.123C158.946 129.583 158.776 129.513 158.651 129.387C158.526 129.262 158.456 129.092 158.456 128.915C158.459 128.738 158.53 128.57 158.655 128.446C158.779 128.321 158.947 128.25 159.123 128.246H222.629C222.806 128.246 222.976 128.317 223.101 128.442C223.226 128.567 223.297 128.737 223.297 128.915C223.297 129.092 223.226 129.262 223.101 129.387C222.976 129.513 222.806 129.583 222.629 129.583Z" fill="#D1D3D4"/>
<path d="M222.629 134.101H159.123C158.946 134.101 158.776 134.031 158.651 133.905C158.526 133.78 158.456 133.61 158.456 133.433C158.459 133.257 158.53 133.089 158.655 132.964C158.779 132.839 158.947 132.768 159.123 132.764H222.629C222.806 132.764 222.976 132.835 223.101 132.96C223.226 133.086 223.297 133.256 223.297 133.433C223.297 133.61 223.226 133.78 223.101 133.905C222.976 134.031 222.806 134.101 222.629 134.101Z" fill="#D1D3D4"/>
<path d="M216.101 138.673H159.123C158.946 138.673 158.776 138.602 158.651 138.477C158.526 138.352 158.456 138.182 158.456 138.004C158.459 137.828 158.53 137.66 158.655 137.536C158.779 137.411 158.947 137.34 159.123 137.336H216.101C216.277 137.34 216.445 137.411 216.569 137.536C216.694 137.66 216.765 137.828 216.768 138.004C216.768 138.182 216.698 138.352 216.573 138.477C216.448 138.602 216.278 138.673 216.101 138.673Z" fill="#D1D3D4"/>
<path d="M145.119 78.0112C146.018 78.0112 146.748 77.281 146.748 76.3804C146.748 75.4797 146.018 74.7495 145.119 74.7495C144.219 74.7495 143.49 75.4797 143.49 76.3804C143.49 77.281 144.219 78.0112 145.119 78.0112Z" fill="#3CB4FF"/>
<path d="M150.859 78.0112C151.759 78.0112 152.488 77.281 152.488 76.3804C152.488 75.4797 151.759 74.7495 150.859 74.7495C149.96 74.7495 149.231 75.4797 149.231 76.3804C149.231 77.281 149.96 78.0112 150.859 78.0112Z" fill="#D1D3D4"/>
<path d="M156.6 78.0112C157.5 78.0112 158.229 77.281 158.229 76.3804C158.229 75.4797 157.5 74.7495 156.6 74.7495C155.701 74.7495 154.971 75.4797 154.971 76.3804C154.971 77.281 155.701 78.0112 156.6 78.0112Z" fill="#D1D3D4"/>
<path d="M260.61 75.0035H398.035V237.392C398.035 239.164 397.331 240.864 396.08 242.118C394.828 243.371 393.13 244.075 391.36 244.075H267.271C265.501 244.075 263.803 243.371 262.552 242.118C261.3 240.864 260.596 239.164 260.596 237.392V75.0035H260.61Z" fill="white"/>
<path d="M391.36 244.744H267.205C265.26 244.74 263.395 243.964 262.021 242.586C260.647 241.207 259.876 239.339 259.876 237.392V75.0035C259.876 74.8262 259.946 74.6562 260.071 74.5309C260.196 74.4055 260.366 74.3351 260.543 74.3351H398.035C398.212 74.3351 398.382 74.4055 398.507 74.5309C398.632 74.6562 398.702 74.8262 398.702 75.0035V237.392C398.699 239.341 397.924 241.208 396.548 242.587C395.172 243.965 393.306 244.74 391.36 244.744ZM261.277 75.6719V237.418C261.277 239.011 261.908 240.54 263.032 241.667C264.156 242.795 265.68 243.43 267.271 243.434H391.426C393.019 243.43 394.545 242.795 395.671 241.668C396.796 240.541 397.43 239.013 397.434 237.418V75.6719H261.277Z" fill="#231F20"/>
<path d="M370.013 230.695H288.578C286.866 230.681 285.228 229.995 284.015 228.786C282.802 227.576 282.111 225.939 282.09 224.225V220.348C282.093 218.616 282.782 216.955 284.006 215.73C285.229 214.505 286.888 213.815 288.618 213.811H370.053C371.785 213.811 373.445 214.5 374.669 215.726C375.893 216.952 376.581 218.615 376.581 220.348V224.225C376.564 225.954 375.863 227.605 374.632 228.818C373.401 230.03 371.74 230.705 370.013 230.695ZM288.578 215.148C287.208 215.159 285.897 215.711 284.932 216.685C283.967 217.659 283.425 218.976 283.425 220.348V224.225C283.429 225.602 283.977 226.921 284.951 227.893C285.924 228.865 287.243 229.411 288.618 229.411H370.053C371.428 229.411 372.747 228.865 373.721 227.893C374.694 226.921 375.243 225.602 375.246 224.225V220.348C375.246 218.969 374.699 217.646 373.725 216.671C372.751 215.696 371.43 215.148 370.053 215.148H288.578Z" fill="#231F20"/>
<path d="M291.155 119.504H280.261V198.118H291.155V119.504Z" fill="#3CB4FF"/>
<path d="M311.26 137.911H300.366V198.105H311.26V137.911Z" fill="#3CB4FF"/>
<path d="M331.351 125.92H320.458V198.118H331.351V125.92Z" fill="#3CB4FF"/>
<path d="M351.457 147.669H340.563V198.105H351.457V147.669Z" fill="#3CB4FF"/>
<path d="M371.562 125.92H360.668V198.118H371.562V125.92Z" fill="#3CB4FF"/>
<path d="M371.308 89.2131H352.845C352.668 89.2131 352.498 89.1427 352.373 89.0174C352.248 88.892 352.177 88.722 352.177 88.5448C352.177 88.3675 352.248 88.1975 352.373 88.0722C352.498 87.9468 352.668 87.8764 352.845 87.8764H371.281C371.457 87.8798 371.625 87.9513 371.75 88.0759C371.874 88.2005 371.945 88.3686 371.949 88.5448C371.949 88.7175 371.882 88.8836 371.763 89.0082C371.643 89.1328 371.48 89.2062 371.308 89.2131Z" fill="#231F20"/>
<path d="M364.86 96.0974H352.845C352.668 96.0974 352.498 96.027 352.373 95.9016C352.248 95.7763 352.177 95.6063 352.177 95.429C352.177 95.2518 352.248 95.0818 352.373 94.9564C352.498 94.8311 352.668 94.7607 352.845 94.7607H364.86C365.037 94.7607 365.207 94.8311 365.332 94.9564C365.457 95.0818 365.527 95.2518 365.527 95.429C365.527 95.6063 365.457 95.7763 365.332 95.9016C365.207 96.027 365.037 96.0974 364.86 96.0974Z" fill="#231F20"/>
<path d="M347.358 126.736C341.538 126.736 336.465 120.239 332.379 114.999C329.709 111.604 327.213 108.315 325.544 108.315C323.648 108.315 321.032 109.879 318.268 111.483C314.504 113.662 310.258 116.135 306.253 115.908C298.764 115.507 284.693 98.958 284.106 98.2496C284.051 98.1868 284.008 98.1136 283.982 98.0342C283.955 97.9549 283.945 97.8711 283.951 97.7877C283.957 97.7043 283.98 97.6229 284.018 97.5485C284.056 97.474 284.109 97.4078 284.173 97.3539C284.294 97.2363 284.457 97.1706 284.626 97.1706C284.796 97.1706 284.958 97.2363 285.08 97.3539C285.214 97.5277 299.378 114.197 306.32 114.571C309.978 114.785 314.063 112.406 317.668 110.307C320.578 108.623 323.328 107.032 325.544 106.965C327.76 106.898 330.337 110.066 333.461 114.09C337.466 119.21 342.405 125.573 347.759 125.319C352.391 125.091 354.607 121.054 356.957 116.777C359.306 112.499 361.536 108.409 366.222 107.513C366.38 107.501 366.538 107.547 366.663 107.644C366.789 107.742 366.875 107.882 366.903 108.039C366.931 108.195 366.9 108.357 366.816 108.492C366.733 108.627 366.601 108.726 366.449 108.77C362.364 109.545 360.281 113.355 358.065 117.392C355.662 121.79 353.165 126.335 347.825 126.602L347.358 126.736Z" fill="#D1D3D4"/>
<path d="M380.88 198.746H271.41C271.326 198.746 271.244 198.73 271.167 198.697C271.09 198.665 271.02 198.617 270.961 198.558C270.903 198.498 270.857 198.427 270.826 198.349C270.796 198.271 270.781 198.188 270.782 198.105C270.789 197.941 270.858 197.787 270.975 197.673C271.091 197.558 271.247 197.493 271.41 197.49H380.88C381.05 197.49 381.213 197.557 381.333 197.678C381.453 197.798 381.521 197.961 381.521 198.131C381.519 198.214 381.501 198.295 381.468 198.371C381.435 198.446 381.387 198.515 381.328 198.572C381.268 198.629 381.198 198.674 381.121 198.704C381.044 198.734 380.962 198.748 380.88 198.746Z" fill="#D1D3D4"/>
<path d="M284.76 100.295C284.274 100.295 283.799 100.151 283.395 99.8803C282.991 99.61 282.676 99.2259 282.491 98.7764C282.305 98.327 282.256 97.8324 282.351 97.3553C282.446 96.8782 282.68 96.4399 283.023 96.096C283.367 95.752 283.804 95.5177 284.281 95.4228C284.757 95.3279 285.251 95.3766 285.7 95.5628C286.149 95.7489 286.532 96.0642 286.802 96.4687C287.072 96.8732 287.216 97.3487 287.216 97.8352C287.216 98.4875 286.958 99.1131 286.497 99.5744C286.036 100.036 285.411 100.295 284.76 100.295ZM284.76 96.6588C284.524 96.6588 284.294 96.729 284.099 96.8603C283.903 96.9916 283.751 97.1782 283.661 97.3964C283.572 97.6146 283.549 97.8545 283.596 98.0856C283.643 98.3167 283.757 98.5287 283.925 98.6945C284.092 98.8604 284.305 98.9726 284.536 99.017C284.768 99.0614 285.007 99.0359 285.224 98.9438C285.441 98.8517 285.625 98.6971 285.754 98.4997C285.883 98.3023 285.951 98.071 285.948 97.8352C285.948 97.6796 285.917 97.5255 285.857 97.3819C285.798 97.2383 285.71 97.108 285.599 96.9986C285.489 96.8892 285.358 96.8028 285.214 96.7445C285.07 96.6862 284.915 96.6571 284.76 96.6588Z" fill="#D1D3D4"/>
<path d="M366.195 110.735C365.71 110.732 365.236 110.586 364.834 110.314C364.432 110.042 364.119 109.657 363.935 109.207C363.751 108.758 363.704 108.263 363.801 107.787C363.897 107.311 364.132 106.874 364.476 106.531C364.82 106.189 365.258 105.956 365.734 105.862C366.21 105.768 366.703 105.818 367.151 106.004C367.599 106.191 367.982 106.506 368.252 106.91C368.521 107.314 368.665 107.789 368.665 108.275C368.661 108.929 368.399 109.554 367.937 110.015C367.474 110.476 366.848 110.735 366.195 110.735ZM366.195 107.085C365.96 107.085 365.73 107.155 365.535 107.286C365.339 107.417 365.187 107.603 365.097 107.82C365.007 108.037 364.984 108.276 365.03 108.507C365.075 108.738 365.189 108.95 365.355 109.116C365.521 109.283 365.733 109.396 365.963 109.442C366.194 109.488 366.433 109.464 366.65 109.374C366.867 109.284 367.052 109.132 367.183 108.936C367.313 108.74 367.383 108.51 367.383 108.275C367.383 107.96 367.258 107.657 367.035 107.434C366.812 107.211 366.51 107.085 366.195 107.085Z" fill="#D1D3D4"/>
<path d="M267.271 61.1414H391.36C393.13 61.1414 394.828 61.8456 396.08 63.099C397.331 64.3525 398.035 66.0525 398.035 67.8252V74.9768H260.61V67.8252C260.61 66.0548 261.311 64.3568 262.56 63.1038C263.809 61.8507 265.503 61.145 267.271 61.1414Z" fill="white"/>
<path d="M398.035 75.6719H260.61C260.433 75.6719 260.263 75.6015 260.138 75.4761C260.013 75.3508 259.942 75.1808 259.942 75.0035V67.8252C259.942 65.8776 260.714 64.0096 262.088 62.6312C263.462 61.2528 265.326 60.4766 267.271 60.4731H391.426C393.373 60.4766 395.238 61.2523 396.614 62.6303C397.991 64.0084 398.765 65.8764 398.769 67.8252V74.9768C398.773 75.0727 398.757 75.1684 398.721 75.2574C398.685 75.3464 398.63 75.4266 398.561 75.4926C398.491 75.5586 398.408 75.6087 398.317 75.6396C398.226 75.6706 398.13 75.6816 398.035 75.6719ZM261.277 74.3351H397.367V67.8252C397.364 66.2309 396.73 64.7029 395.604 63.5756C394.478 62.4482 392.952 61.8133 391.36 61.8098H267.205C265.614 61.8133 264.089 62.4487 262.965 63.5764C261.842 64.7041 261.211 66.2321 261.211 67.8252L261.277 74.3351Z" fill="#231F20"/>
<path d="M118.806 143.793H26.8647C24.1588 143.793 21.9652 145.989 21.9652 148.698V264.06C21.9652 266.769 24.1588 268.966 26.8647 268.966H118.806C121.512 268.966 123.706 266.769 123.706 264.06V148.698C123.706 145.989 121.512 143.793 118.806 143.793Z" fill="white"/>
<path d="M118.806 269.674H26.8647C25.3882 269.674 23.9723 269.087 22.9282 268.042C21.8842 266.996 21.2977 265.578 21.2977 264.1V148.698C21.3013 147.221 21.8889 145.805 22.9321 144.761C23.9754 143.716 25.3893 143.128 26.8647 143.124H118.806C120.281 143.128 121.695 143.716 122.739 144.761C123.782 145.805 124.37 147.221 124.373 148.698V264.06C124.378 264.795 124.238 265.524 123.961 266.205C123.683 266.886 123.274 267.505 122.757 268.027C122.239 268.549 121.624 268.963 120.946 269.246C120.268 269.529 119.541 269.674 118.806 269.674ZM26.8647 144.461C25.7434 144.464 24.669 144.912 23.8761 145.706C23.0832 146.5 22.6363 147.576 22.6327 148.698V264.06C22.6274 264.62 22.733 265.175 22.9433 265.694C23.1536 266.213 23.4645 266.684 23.858 267.082C24.2515 267.48 24.7198 267.796 25.2359 268.011C25.7519 268.227 26.3055 268.337 26.8647 268.337H118.806C119.929 268.337 121.005 267.891 121.799 267.096C122.592 266.302 123.038 265.224 123.038 264.1V148.698C123.035 147.576 122.588 146.5 121.795 145.706C121.002 144.912 119.927 144.464 118.806 144.461H26.8647Z" fill="#231F20"/>
<path d="M98.0603 242.525H43.2318C43.0548 242.525 42.885 242.454 42.7598 242.329C42.6347 242.204 42.5643 242.034 42.5643 241.856C42.5677 241.68 42.6392 241.512 42.7636 241.388C42.8881 241.263 43.0559 241.191 43.2318 241.188H98.0603C98.2373 241.188 98.4071 241.258 98.5323 241.384C98.6575 241.509 98.7278 241.679 98.7278 241.856C98.7278 242.034 98.6575 242.204 98.5323 242.329C98.4071 242.454 98.2373 242.525 98.0603 242.525Z" fill="#D1D3D4"/>
<path d="M71.5872 251.494H43.2318C43.0559 251.491 42.8881 251.419 42.7636 251.295C42.6392 251.17 42.5677 251.002 42.5643 250.826C42.5643 250.649 42.6347 250.479 42.7598 250.353C42.885 250.228 43.0548 250.158 43.2318 250.158H71.5872C71.7643 250.158 71.934 250.228 72.0592 250.353C72.1844 250.479 72.2547 250.649 72.2547 250.826C72.2513 251.002 72.1799 251.17 72.0554 251.295C71.931 251.419 71.7632 251.491 71.5872 251.494Z" fill="#D1D3D4"/>
<path d="M46.6227 171.971C54.6327 179.992 62.6116 187.985 70.5593 195.953C70.6809 196.085 70.8299 196.19 70.9958 196.259C71.1618 196.328 71.3408 196.36 71.5204 196.354H108.193C107.992 202.026 106.432 207.566 103.646 212.508C100.859 217.451 96.9264 221.65 92.1798 224.752C87.4332 227.854 82.0114 229.768 76.3714 230.333C70.7314 230.898 65.0384 230.097 59.7721 227.998C54.5058 225.899 49.8205 222.563 46.1111 218.272C42.4018 213.98 39.7769 208.859 38.4578 203.339C37.1387 197.82 37.164 192.063 38.5315 186.555C39.899 181.047 42.5687 175.949 46.3156 171.691L46.6227 171.971Z" fill="#3CB4FF"/>
<path d="M74.1104 159.633V193.827H74.4575L107.512 193.747C108.246 193.747 108.246 193.747 108.193 193.012C107.776 186.508 105.59 180.243 101.872 174.894C98.1543 169.546 93.0458 165.317 87.0999 162.667C83.4705 161.08 79.6055 160.1 75.659 159.767L74.1104 159.633Z" fill="#D1D3D4"/>
<path d="M71.5872 193.373V159.66C67.6166 159.866 63.7025 160.691 59.986 162.106C55.5404 163.867 51.4848 166.488 48.0511 169.819L71.5872 193.373Z" fill="#D1D3D4"/>
<path d="M177.56 175.166C169.696 172.8 165.545 163.59 163.449 156.264C161.099 147.937 158.336 141.119 161.686 132.444C162.447 130.452 163.676 128.433 165.691 127.792C166.195 127.719 166.679 127.551 167.12 127.297C167.47 126.95 167.731 126.524 167.881 126.054C172.66 114.772 186.184 114.464 196.33 116.055C202.204 116.977 209.826 119.664 211.655 125.706C215.006 136.841 212.176 148.952 206.008 158.577C200.241 167.627 189.334 178.775 177.56 175.166Z" fill="white"/>
<path d="M182.058 176.503C180.471 176.507 178.891 176.273 177.373 175.808C169.162 173.335 164.917 163.924 162.808 156.452C162.541 155.502 162.274 154.567 161.993 153.644C159.857 146.386 157.988 140.103 161.059 132.256C162.14 129.436 163.662 127.738 165.544 127.204L165.945 127.11C166.271 127.113 166.587 126.996 166.833 126.782C167.078 126.568 167.238 126.271 167.28 125.947C172.26 114.237 185.97 113.783 196.49 115.454C200.495 116.082 210.187 118.341 212.363 125.573C215.54 136.16 213.458 148.297 206.636 158.991C200.855 167.908 191.751 176.503 182.058 176.503ZM187.986 116.028C179.976 116.028 171.966 118.301 168.535 126.308C168.356 126.889 168.024 127.411 167.574 127.818C167.176 128.098 166.719 128.281 166.239 128.353L165.905 128.447C164.45 128.848 163.235 130.278 162.3 132.684C159.417 140.157 161.206 146.239 163.275 153.27C163.555 154.192 163.822 155.128 164.103 156.091C166.119 163.229 170.124 172.239 177.76 174.538C188.44 177.733 199.12 168.202 205.488 158.216C212.096 147.896 214.125 136.12 211.055 125.894C209.092 119.397 200.054 117.312 196.263 116.723C193.526 116.278 190.759 116.046 187.986 116.028Z" fill="#231F20"/>
<path d="M213.284 152.628C213.284 152.628 221.708 163.175 220.386 165.648C219.065 168.121 213.831 166.985 213.831 166.985" fill="white"/>
<path d="M216.328 167.961C215.431 167.962 214.537 167.872 213.658 167.694C213.481 167.658 213.325 167.554 213.225 167.403C213.125 167.253 213.088 167.069 213.124 166.892C213.159 166.714 213.264 166.558 213.414 166.458C213.564 166.358 213.748 166.321 213.925 166.357C215.26 166.624 218.878 166.972 219.759 165.314C220.453 163.977 216.635 157.922 212.723 153.016C212.612 152.877 212.559 152.7 212.577 152.523C212.594 152.345 212.68 152.182 212.817 152.067C212.959 151.96 213.136 151.912 213.312 151.932C213.488 151.952 213.65 152.038 213.765 152.174C215.807 154.741 222.362 163.282 220.934 165.943C220.106 167.587 218.01 167.961 216.328 167.961Z" fill="#231F20"/>
<path d="M210.347 137.924C215.42 141.346 214.793 149.634 215.233 154.941C215.847 162.4 216.292 169.877 216.568 177.372C216.742 182.117 204.553 183.334 202.244 182.117L205.848 200.631L179.295 193.092L178.16 171.45C178.16 171.45 186.17 170.768 190.175 160.756C194.18 150.744 192.538 135.892 192.538 135.892C192.538 135.892 205.394 134.569 210.347 137.924Z" fill="white"/>
<path d="M205.848 201.299H205.661L179.081 193.76C178.947 193.724 178.826 193.647 178.738 193.539C178.649 193.431 178.597 193.298 178.587 193.159L177.453 171.503C177.445 171.333 177.503 171.165 177.615 171.036C177.727 170.907 177.884 170.825 178.053 170.808C178.374 170.808 185.783 170.02 189.481 160.489C193.286 150.677 191.817 136.08 191.804 135.932C191.793 135.755 191.845 135.58 191.951 135.438C192.007 135.37 192.076 135.313 192.154 135.272C192.232 135.231 192.317 135.205 192.405 135.197C192.939 135.197 205.635 133.954 210.721 137.39C215.22 140.437 215.5 146.854 215.727 152.094C215.727 153.11 215.821 154.086 215.901 154.981C216.515 162.44 216.969 169.993 217.236 177.439C217.23 178.194 217.011 178.932 216.605 179.568C216.199 180.204 215.622 180.712 214.94 181.034C211.829 182.986 205.955 183.641 203.098 183.16L206.502 200.538C206.523 200.651 206.516 200.767 206.481 200.877C206.446 200.987 206.385 201.086 206.302 201.166C206.17 201.259 206.01 201.306 205.848 201.299ZM179.896 192.584L204.98 199.695L201.59 182.251C201.561 182.127 201.57 181.997 201.615 181.878C201.66 181.759 201.739 181.656 201.843 181.582C201.95 181.518 202.072 181.483 202.197 181.483C202.322 181.483 202.444 181.518 202.551 181.582C204.033 182.371 210.894 181.957 214.232 179.871C215.38 179.15 215.941 178.334 215.901 177.452C215.634 170.02 215.18 162.48 214.566 155.048C214.486 154.139 214.446 153.15 214.392 152.107C214.179 147.241 213.912 141.186 209.973 138.526C205.968 135.772 195.862 136.307 193.192 136.494C193.446 139.555 194.22 152 190.723 160.997C187.225 169.993 180.884 171.69 178.814 172.078L179.896 192.584Z" fill="#231F20"/>
<path d="M215.887 171.824C215.887 171.824 208.571 171.824 206.823 161.932L215.887 171.824Z" fill="white"/>
<path d="M215.887 172.493C215.807 172.493 207.984 172.372 206.155 162.053C206.128 161.877 206.17 161.699 206.272 161.554C206.374 161.409 206.528 161.31 206.702 161.277C206.876 161.246 207.055 161.285 207.2 161.385C207.345 161.485 207.444 161.639 207.477 161.812C209.092 171.009 215.62 171.169 215.887 171.169C216.064 171.169 216.234 171.24 216.359 171.365C216.484 171.49 216.555 171.66 216.555 171.838C216.551 172.012 216.479 172.179 216.355 172.302C216.23 172.424 216.062 172.493 215.887 172.493Z" fill="#231F20"/>
<path d="M199.427 158.724C199.046 156.88 198.163 155.178 196.877 153.805C196.033 152.613 195.016 151.555 193.86 150.663C193.28 150.22 192.609 149.912 191.895 149.762C191.182 149.612 190.443 149.623 189.735 149.795C189.134 150.014 188.586 150.356 188.126 150.801C187.666 151.245 187.305 151.781 187.065 152.374C186.585 153.575 186.38 154.867 186.464 156.157C186.59 158.978 187.457 161.716 188.979 164.094C190.5 166.472 192.621 168.405 195.128 169.699L194.687 169.284" fill="white"/>
<path d="M195.088 170.34C194.985 170.339 194.884 170.311 194.794 170.26C192.189 168.905 189.984 166.89 188.398 164.415C186.812 161.941 185.901 159.094 185.756 156.158C185.674 154.789 185.898 153.419 186.411 152.147C186.694 151.46 187.121 150.841 187.662 150.332C188.203 149.823 188.845 149.434 189.548 149.193C190.353 148.99 191.194 148.971 192.007 149.137C192.821 149.304 193.586 149.652 194.247 150.156C195.459 151.079 196.521 152.184 197.398 153.431C198.764 154.9 199.689 156.726 200.068 158.697C200.086 158.873 200.035 159.048 199.925 159.186C199.815 159.324 199.655 159.412 199.48 159.433C199.305 159.451 199.13 159.4 198.992 159.29C198.855 159.18 198.766 159.02 198.746 158.844C198.37 157.121 197.535 155.532 196.33 154.246C195.529 153.113 194.566 152.104 193.473 151.252C192.975 150.867 192.398 150.598 191.784 150.464C191.17 150.33 190.534 150.334 189.922 150.476C189.404 150.663 188.932 150.957 188.536 151.34C188.141 151.722 187.83 152.184 187.625 152.695C187.184 153.802 186.997 154.995 187.078 156.184C187.206 158.717 187.951 161.179 189.25 163.356C190.549 165.532 192.361 167.357 194.527 168.669C194.625 168.65 194.725 168.654 194.821 168.682C194.916 168.71 195.003 168.761 195.075 168.83L195.529 169.231C195.634 169.321 195.708 169.441 195.742 169.575C195.776 169.71 195.768 169.851 195.718 169.98C195.668 170.109 195.579 170.22 195.464 170.296C195.349 170.373 195.213 170.411 195.075 170.407L195.088 170.34Z" fill="#231F20"/>
<path d="M202.244 182.117C202.244 182.117 195.715 180.78 192.378 176.636C192.378 176.636 193.553 186.528 203.565 188.935L202.244 182.117Z" fill="#231F20"/>
<path d="M203.565 189.603H203.405C193.059 187.13 191.724 176.85 191.71 176.743C191.693 176.6 191.723 176.454 191.795 176.329C191.867 176.204 191.978 176.105 192.111 176.048C192.243 175.99 192.39 175.976 192.53 176.01C192.67 176.044 192.795 176.123 192.885 176.235C196.049 180.099 202.31 181.475 202.377 181.489C202.507 181.516 202.626 181.581 202.719 181.677C202.812 181.772 202.874 181.893 202.898 182.024L204.233 188.828C204.253 188.925 204.25 189.025 204.227 189.121C204.203 189.218 204.158 189.307 204.096 189.384C204.033 189.461 203.954 189.523 203.865 189.565C203.775 189.608 203.678 189.63 203.579 189.63L203.565 189.603ZM193.553 178.749C194.202 180.925 195.378 182.908 196.975 184.522C198.573 186.135 200.543 187.329 202.711 187.999L201.67 182.652C198.726 181.934 195.962 180.614 193.553 178.775V178.749Z" fill="#231F20"/>
<path d="M209.629 147.935C209.742 146.463 209.364 145.233 208.783 145.188C208.202 145.143 207.639 146.3 207.526 147.773C207.412 149.245 207.791 150.475 208.371 150.519C208.952 150.564 209.515 149.407 209.629 147.935Z" fill="#231F20"/>
<path d="M139.098 237.378L125.401 261.44L89.7298 224.786C89.7298 224.786 92.6134 209.213 88.7686 210.456C86.3394 211.322 84.2273 212.902 82.7077 214.988C82.7077 214.988 79.5438 193.6 71.2134 200.631C62.883 207.662 66.7144 220.014 73.029 231.884C77.7148 240.693 119.353 304.951 130.901 302.371C142.449 299.791 169.87 241.429 169.87 241.429L139.098 237.378Z" fill="white"/>
<path d="M130.26 303.093C117.137 303.093 76.6202 240.052 72.4416 232.245C67.1817 222.34 61.281 208.184 70.7862 200.163C72.5484 198.666 74.2572 198.212 75.8726 198.827C80.2514 200.484 82.4141 209.801 83.1083 213.531C84.5886 211.878 86.469 210.635 88.5684 209.922C88.8517 209.81 89.1603 209.78 89.4596 209.835C89.759 209.889 90.0374 210.025 90.2639 210.229C92.4933 212.194 90.9314 221.939 90.4508 224.666L125.254 260.317L138.524 237.017C138.589 236.901 138.688 236.808 138.807 236.748C138.926 236.689 139.06 236.666 139.192 236.683L169.897 240.693C170.001 240.706 170.101 240.745 170.187 240.805C170.273 240.866 170.343 240.947 170.391 241.041C170.437 241.135 170.46 241.237 170.46 241.342C170.46 241.446 170.437 241.549 170.391 241.643C169.256 244.035 142.676 300.339 130.955 302.946C130.728 303.017 130.496 303.066 130.26 303.093ZM74.4441 199.856C73.3808 199.954 72.3871 200.428 71.6406 201.193C64.9656 206.86 65.5931 216.538 73.6298 231.63C78.7161 241.201 120.034 304.149 130.754 301.783C141.114 299.47 165.464 249.142 168.882 242.03L139.512 238.154L126.029 261.827C125.977 261.917 125.906 261.994 125.82 262.052C125.734 262.109 125.637 262.147 125.535 262.162C125.432 262.176 125.327 262.165 125.23 262.131C125.132 262.096 125.044 262.037 124.974 261.961L89.3027 225.307C89.2299 225.23 89.1762 225.136 89.1461 225.034C89.116 224.932 89.1101 224.824 89.1291 224.719C90.0369 219.787 90.7445 212.341 89.4362 211.191C89.4362 211.191 89.2893 211.071 89.0223 211.191C86.7402 212.019 84.7527 213.502 83.3085 215.456C83.2307 215.566 83.1223 215.652 82.9966 215.702C82.8709 215.752 82.7334 215.764 82.601 215.736C82.4715 215.706 82.3541 215.638 82.2637 215.54C82.1733 215.442 82.1141 215.32 82.0937 215.188C81.5463 211.486 79.3035 201.58 75.4187 200.137C75.1147 199.981 74.7839 199.886 74.4441 199.856Z" fill="#231F20"/>
<path d="M243.442 226.591C243.442 226.591 271.049 219.426 281.396 213.344C292.743 206.66 314.117 164.445 321.059 153.952C324.827 148.157 327.627 141.787 329.349 135.09C330.15 132.096 330.524 129.93 329.029 127.07C328.721 126.468 323.822 121.095 323.595 121.723C324.93 117.967 326.265 114.397 327.68 110.681C328.054 109.652 328.334 108.355 327.547 107.607C327.202 107.337 326.776 107.19 326.339 107.19C325.901 107.19 325.475 107.337 325.13 107.607C324.434 108.141 323.868 108.827 323.475 109.612L312.127 129.316C312.219 126.883 311.729 124.463 310.699 122.258C310.537 121.815 310.243 121.432 309.858 121.161C308.616 120.466 307.415 122.164 307.028 123.527C305.012 130.639 306.467 139.208 302.115 145.504C298.804 150.289 269.394 185.606 269.394 185.606L243.442 192.29" fill="white"/>
<path d="M243.442 227.259C243.265 227.282 243.086 227.234 242.944 227.125C242.803 227.016 242.71 226.855 242.687 226.678C242.664 226.5 242.713 226.321 242.822 226.18C242.93 226.038 243.091 225.945 243.268 225.922C243.549 225.856 270.916 218.731 281.062 212.755C289.272 207.916 303.223 183.441 312.461 167.239C315.799 161.398 318.669 156.345 320.471 153.578C324.194 147.825 326.958 141.504 328.655 134.863C329.416 132.056 329.816 130.011 328.388 127.27C326.96 125.478 325.369 123.822 323.635 122.324C323.538 122.344 323.438 122.344 323.341 122.324C323.175 122.264 323.038 122.141 322.961 121.981C322.884 121.821 322.872 121.637 322.928 121.469C323.742 119.063 324.65 116.697 325.518 114.397C326.025 113.061 326.519 111.724 327.013 110.387C327.507 109.05 327.467 108.422 327.013 108.035C326.783 107.864 326.504 107.772 326.218 107.772C325.932 107.772 325.654 107.864 325.424 108.035C324.826 108.53 324.343 109.151 324.009 109.853L312.621 129.596C312.549 129.727 312.433 129.828 312.295 129.884C312.157 129.94 312.003 129.947 311.86 129.904C311.745 129.853 311.646 129.772 311.576 129.668C311.505 129.563 311.465 129.441 311.46 129.316C311.537 127.014 311.081 124.726 310.125 122.632C310.012 122.32 309.813 122.046 309.551 121.843C309.478 121.801 309.395 121.779 309.311 121.779C309.226 121.779 309.143 121.801 309.07 121.843C308.388 122.312 307.91 123.025 307.735 123.835C307.049 126.553 306.602 129.326 306.4 132.123C305.96 136.935 305.493 141.921 302.662 145.998C299.378 150.77 271.103 184.657 269.901 186.101C269.812 186.208 269.69 186.283 269.554 186.315L243.602 192.998C243.43 193.039 243.25 193.012 243.098 192.922C242.946 192.833 242.835 192.687 242.788 192.517C242.765 192.432 242.76 192.343 242.773 192.256C242.785 192.169 242.814 192.085 242.859 192.009C242.903 191.934 242.963 191.868 243.033 191.815C243.103 191.762 243.183 191.723 243.268 191.702L269.02 185.018C271.196 182.344 298.39 149.728 301.568 145.183C304.238 141.386 304.638 136.574 305.079 131.936C305.265 129.054 305.712 126.195 306.414 123.394C306.555 122.794 306.819 122.23 307.188 121.738C307.558 121.245 308.027 120.835 308.563 120.533C308.826 120.421 309.112 120.373 309.397 120.391C309.682 120.41 309.959 120.495 310.205 120.64C310.718 120.947 311.113 121.418 311.326 121.977C312.063 123.555 312.537 125.244 312.728 126.976L322.928 109.264C323.374 108.381 324.018 107.612 324.81 107.019C325.286 106.67 325.863 106.489 326.452 106.504C327.042 106.518 327.609 106.727 328.067 107.099C328.895 107.888 329.002 109.171 328.361 110.895C327.867 112.232 327.36 113.569 326.853 114.905C326.065 116.991 325.251 119.143 324.49 121.322C326.414 122.9 328.152 124.694 329.669 126.669C331.311 129.824 330.858 132.203 330.043 135.224C328.299 141.985 325.473 148.418 321.673 154.273C319.857 157.013 317 162.039 313.663 167.854C303.797 185.152 290.3 208.852 281.77 213.865C271.477 219.934 244.777 226.885 243.642 227.232L243.442 227.259Z" fill="#231F20"/>
<path d="M250.05 341.859L241.412 302.531L155.265 325.671C155.265 325.671 155.438 332.127 155.679 341.832L250.05 341.859Z" fill="#231F20"/>
<path d="M267.405 182.786C267.405 182.786 169.389 180.714 156.947 198.332C147.264 212.953 139.156 228.559 132.757 244.891L150.379 261.386C150.301 284.715 151.487 308.031 153.93 331.231C184.301 336.578 247.22 312.25 246.686 312.009L238.676 230.467L276.189 218.864L267.405 182.786Z" fill="#3CB4FF"/>
<path d="M149.231 255.264C149.143 255.261 149.057 255.24 148.977 255.203C148.898 255.166 148.826 255.114 148.767 255.05C148.707 254.985 148.661 254.909 148.63 254.827C148.6 254.744 148.586 254.657 148.59 254.569C148.59 253.099 149.751 218.303 154.517 206.139C154.548 206.056 154.596 205.98 154.656 205.916C154.717 205.852 154.79 205.801 154.872 205.766C154.953 205.731 155.04 205.713 155.128 205.712C155.216 205.712 155.304 205.73 155.385 205.764C155.467 205.794 155.543 205.84 155.607 205.899C155.67 205.959 155.721 206.031 155.756 206.111C155.791 206.191 155.81 206.278 155.81 206.365C155.811 206.453 155.793 206.539 155.759 206.62C151.086 218.57 149.938 254.261 149.925 254.609C149.918 254.787 149.841 254.956 149.712 255.079C149.582 255.201 149.409 255.268 149.231 255.264Z" fill="#231F20"/>
<path d="M225.259 234.638C225.114 234.64 224.972 234.594 224.856 234.507C224.74 234.42 224.657 234.297 224.618 234.157C224.573 233.985 224.596 233.802 224.684 233.647C224.771 233.492 224.915 233.378 225.085 233.328L252.787 225.441C252.964 225.392 253.153 225.414 253.313 225.505C253.474 225.595 253.592 225.745 253.641 225.922C253.691 226.1 253.668 226.289 253.578 226.45C253.488 226.61 253.338 226.728 253.161 226.778L225.446 234.665C225.382 234.669 225.319 234.66 225.259 234.638Z" fill="#231F20"/>
<path d="M333.554 328.277H285.107C284.435 328.279 283.769 328.148 283.148 327.891C282.527 327.634 281.963 327.257 281.488 326.782C281.013 326.306 280.636 325.741 280.38 325.119C280.123 324.497 279.992 323.83 279.994 323.157V269.567C279.994 268.895 280.126 268.229 280.383 267.608C280.64 266.987 281.017 266.422 281.492 265.947C281.966 265.472 282.53 265.094 283.15 264.837C283.771 264.58 284.436 264.447 285.107 264.447H327.827L338.614 274.981V323.104C338.621 323.776 338.496 324.443 338.245 325.067C337.995 325.691 337.624 326.26 337.154 326.74C336.684 327.22 336.125 327.603 335.507 327.867C334.889 328.131 334.226 328.27 333.554 328.277Z" fill="white"/>
<path d="M333.554 328.946H285.107C283.574 328.946 282.104 328.336 281.02 327.25C279.936 326.165 279.327 324.693 279.327 323.157V269.567C279.33 268.033 279.94 266.563 281.024 265.478C282.107 264.394 283.575 263.783 285.107 263.779H327.827C327.914 263.777 328 263.793 328.08 263.825C328.16 263.857 328.233 263.905 328.294 263.966L339.095 274.513C339.219 274.637 339.291 274.805 339.295 274.981V323.104C339.305 324.64 338.707 326.118 337.631 327.213C336.555 328.309 335.089 328.931 333.554 328.946ZM285.107 265.116C283.929 265.119 282.8 265.59 281.968 266.424C281.135 267.258 280.665 268.388 280.662 269.567V323.144C280.662 323.729 280.777 324.308 281 324.848C281.223 325.388 281.551 325.878 281.964 326.292C282.376 326.705 282.866 327.033 283.406 327.257C283.945 327.48 284.523 327.596 285.107 327.596H333.554C334.732 327.592 335.861 327.122 336.694 326.288C337.527 325.454 337.996 324.324 338 323.144V275.262L327.6 265.116H285.107Z" fill="#231F20"/>
<path d="M268.94 70.4987C270.179 70.4987 271.183 69.4932 271.183 68.2529C271.183 67.0126 270.179 66.0072 268.94 66.0072C267.702 66.0072 266.697 67.0126 266.697 68.2529C266.697 69.4932 267.702 70.4987 268.94 70.4987Z" fill="#3CB4FF"/>
<path d="M276.723 70.4987C277.962 70.4987 278.966 69.4932 278.966 68.2529C278.966 67.0126 277.962 66.0072 276.723 66.0072C275.485 66.0072 274.48 67.0126 274.48 68.2529C274.48 69.4932 275.485 70.4987 276.723 70.4987Z" fill="#D1D3D4"/>
<path d="M284.506 70.4987C285.745 70.4987 286.749 69.4932 286.749 68.2529C286.749 67.0126 285.745 66.0072 284.506 66.0072C283.268 66.0072 282.264 67.0126 282.264 68.2529C282.264 69.4932 283.268 70.4987 284.506 70.4987Z" fill="#D1D3D4"/>
<path d="M327.48 103.503C327.327 103.502 327.18 103.445 327.066 103.343C326.938 103.234 326.858 103.079 326.843 102.911C326.828 102.744 326.879 102.577 326.986 102.447L332.753 95.6028C332.814 95.531 332.89 95.4734 332.975 95.4341C333.06 95.3949 333.153 95.3749 333.247 95.3756H347.678C347.856 95.3756 348.025 95.446 348.15 95.5713C348.276 95.6967 348.346 95.8667 348.346 96.0439C348.346 96.2212 348.276 96.3912 348.15 96.5165C348.025 96.6419 347.856 96.7123 347.678 96.7123H333.514L327.934 103.396C327.801 103.488 327.639 103.526 327.48 103.503Z" fill="#D1D3D4"/>
<path d="M327.88 264.447V275.302L338.667 274.981L327.88 264.447Z" fill="#3CB4FF"/>
<path d="M327.867 275.97C327.697 275.969 327.534 275.902 327.413 275.783C327.346 275.723 327.292 275.648 327.255 275.565C327.218 275.482 327.199 275.393 327.2 275.302V264.447C327.202 264.316 327.242 264.188 327.316 264.079C327.389 263.97 327.493 263.884 327.613 263.833C327.733 263.78 327.866 263.765 327.994 263.789C328.123 263.813 328.241 263.874 328.334 263.966L339.134 274.513C339.225 274.606 339.287 274.723 339.313 274.85C339.338 274.977 339.326 275.109 339.278 275.23C339.23 275.35 339.148 275.454 339.042 275.529C338.936 275.603 338.81 275.645 338.681 275.649L327.894 275.97H327.867ZM328.535 266.038V274.62L337.065 274.366L328.535 266.038Z" fill="#231F20"/>
<path d="M94.3889 292.68H80.6785C78.6657 292.68 77.0339 294.313 77.0339 296.329V310.057C77.0339 312.073 78.6657 313.707 80.6785 313.707H94.3889C96.4018 313.707 98.0335 312.073 98.0335 310.057V296.329C98.0335 294.313 96.4018 292.68 94.3889 292.68Z" fill="#3CB4FF"/>
<path d="M90.7712 285.942H76.6068C74.7193 285.942 73.1892 287.474 73.1892 289.364V303.547C73.1892 305.437 74.7193 306.969 76.6068 306.969H90.7712C92.6587 306.969 94.1888 305.437 94.1888 303.547V289.364C94.1888 287.474 92.6587 285.942 90.7712 285.942Z" fill="white"/>
<path d="M90.7711 307.638H76.6068C76.0681 307.641 75.534 307.538 75.0353 307.334C74.5366 307.13 74.0831 306.829 73.7009 306.449C73.3187 306.069 73.0154 305.617 72.8085 305.119C72.6015 304.621 72.495 304.087 72.495 303.547V289.364C72.495 288.28 72.9254 287.239 73.6915 286.472C74.4576 285.705 75.4967 285.274 76.5801 285.274H90.7444C91.2809 285.274 91.8121 285.38 92.3077 285.585C92.8034 285.791 93.2537 286.092 93.633 286.472C94.0124 286.852 94.3133 287.303 94.5186 287.799C94.7239 288.295 94.8295 288.827 94.8295 289.364V303.547C94.8296 304.628 94.4028 305.664 93.6425 306.43C92.8822 307.197 91.85 307.631 90.7711 307.638ZM76.6068 286.611C76.2434 286.607 75.8829 286.676 75.5462 286.813C75.2094 286.949 74.9031 287.152 74.6449 287.408C74.3867 287.664 74.1817 287.969 74.0419 288.304C73.902 288.64 73.83 289.001 73.83 289.364V303.547C73.83 304.278 74.1197 304.978 74.6355 305.495C75.1512 306.011 75.8507 306.301 76.5801 306.301H90.7444C91.4738 306.301 92.1733 306.011 92.6891 305.495C93.2048 304.978 93.4946 304.278 93.4946 303.547V289.364C93.4946 288.634 93.2048 287.934 92.6891 287.417C92.1733 286.901 91.4738 286.611 90.7444 286.611H76.6068Z" fill="#231F20"/>
<path d="M306.44 316.313V313.159C305.292 312.838 304.184 312.611 303.103 312.236C301.017 311.583 299.211 310.246 297.976 308.44C296.961 306.846 296.445 304.983 296.495 303.093H302.649C302.689 304.165 303.081 305.194 303.764 306.02C304.447 306.846 305.383 307.424 306.427 307.665V299.297C305.185 298.936 303.957 298.601 302.729 298.214C301.391 297.828 300.164 297.126 299.151 296.169C298.101 295.116 297.405 293.76 297.162 292.292C296.805 290.507 296.939 288.659 297.549 286.945C298.002 285.71 298.722 284.591 299.656 283.667C300.591 282.743 301.718 282.036 302.956 281.598C303.978 281.276 305.016 281.008 306.067 280.796L306.44 280.716V276.358H312.208V276.772C312.208 277.962 312.208 279.165 312.208 280.355C312.208 280.649 312.301 280.742 312.581 280.809C314.542 281.19 316.378 282.053 317.921 283.322C319.564 284.666 320.653 286.57 320.979 288.669C321.085 289.244 321.125 289.832 321.205 290.434H314.944C314.934 289.579 314.676 288.745 314.202 288.033C313.729 287.321 313.059 286.762 312.274 286.424V294.244L312.955 294.404C314.648 294.732 316.297 295.257 317.868 295.968C319.048 296.481 320.066 297.305 320.814 298.353C321.562 299.401 322.011 300.633 322.113 301.917C322.482 304.309 321.902 306.75 320.498 308.721C319.342 310.323 317.719 311.528 315.852 312.169C314.691 312.57 313.489 312.824 312.248 313.172V316.233L306.44 316.313ZM312.221 300.419V307.691C313.159 307.554 314.041 307.161 314.771 306.555C315.147 306.248 315.448 305.859 315.65 305.416C315.852 304.974 315.95 304.492 315.936 304.006C315.921 303.52 315.796 303.044 315.568 302.614C315.341 302.185 315.018 301.813 314.624 301.529C313.85 301.104 313.047 300.733 312.221 300.419ZM306.427 292.974V285.942C305.672 286.273 304.936 286.648 304.224 287.065C303.815 287.357 303.485 287.746 303.264 288.197C303.042 288.648 302.935 289.147 302.954 289.649C302.973 290.151 303.115 290.641 303.37 291.074C303.624 291.508 303.982 291.871 304.411 292.132C305.039 292.466 305.719 292.693 306.427 292.987V292.974Z" fill="#3CB4FF"/>
<path d="M113.079 89.6275H54.2855V124.704H113.079V89.6275Z" fill="#D1D3D4"/>
</svg>
